<mxfile host="app.diagrams.net" modified="2020-08-27T13:43:12.723Z" agent="5.0 (Windows)" etag="VISSCFuPFfkrVc-z96mW" version="13.6.5" type="github">
  <diagram id="oLh2_TF2ws6qv_vylbm9" name="Page-1">
    <mxGraphModel dx="1038" dy="1374" grid="1" gridSize="10" guides="1" tooltips="1" connect="1" arrows="1" fold="1" page="1" pageScale="1" pageWidth="1169" pageHeight="827" math="0" shadow="0">
      <root>
        <mxCell id="0" />
        <mxCell id="1" parent="0" />
        <mxCell id="RbVubb4JVoVdCr4QG7oP-7" value="" style="edgeStyle=orthogonalEdgeStyle;rounded=0;orthogonalLoop=1;jettySize=auto;html=1;" edge="1" parent="1" source="RbVubb4JVoVdCr4QG7oP-5">
          <mxGeometry relative="1" as="geometry">
            <mxPoint x="255" y="-610" as="targetPoint" />
          </mxGeometry>
        </mxCell>
        <mxCell id="RbVubb4JVoVdCr4QG7oP-9" value="Subscription to information sources" style="shape=process;whiteSpace=wrap;html=1;backgroundOutline=1;rounded=0;" vertex="1" parent="1">
          <mxGeometry x="395" y="-620" width="120" height="60" as="geometry" />
        </mxCell>
        <mxCell id="RbVubb4JVoVdCr4QG7oP-16" value="" style="edgeStyle=orthogonalEdgeStyle;rounded=0;orthogonalLoop=1;jettySize=auto;html=1;" edge="1" parent="1" source="RbVubb4JVoVdCr4QG7oP-13" target="RbVubb4JVoVdCr4QG7oP-15">
          <mxGeometry relative="1" as="geometry" />
        </mxCell>
        <mxCell id="RbVubb4JVoVdCr4QG7oP-13" value="Is information in country?" style="rhombus;whiteSpace=wrap;html=1;rounded=0;" vertex="1" parent="1">
          <mxGeometry x="215" y="-520" width="80" height="80" as="geometry" />
        </mxCell>
        <mxCell id="RbVubb4JVoVdCr4QG7oP-14" value="" style="edgeStyle=orthogonalEdgeStyle;rounded=0;orthogonalLoop=1;jettySize=auto;html=1;" edge="1" parent="1" source="RbVubb4JVoVdCr4QG7oP-8" target="RbVubb4JVoVdCr4QG7oP-13">
          <mxGeometry relative="1" as="geometry" />
        </mxCell>
        <mxCell id="RbVubb4JVoVdCr4QG7oP-18" value="" style="edgeStyle=orthogonalEdgeStyle;rounded=0;orthogonalLoop=1;jettySize=auto;html=1;" edge="1" parent="1" source="RbVubb4JVoVdCr4QG7oP-15" target="RbVubb4JVoVdCr4QG7oP-17">
          <mxGeometry relative="1" as="geometry" />
        </mxCell>
        <mxCell id="RbVubb4JVoVdCr4QG7oP-15" value="Acquire from identified source" style="whiteSpace=wrap;html=1;rounded=0;" vertex="1" parent="1">
          <mxGeometry x="195" y="-380" width="120" height="40" as="geometry" />
        </mxCell>
        <mxCell id="RbVubb4JVoVdCr4QG7oP-25" value="" style="edgeStyle=orthogonalEdgeStyle;rounded=0;orthogonalLoop=1;jettySize=auto;html=1;entryX=0;entryY=0.5;entryDx=0;entryDy=0;" edge="1" parent="1" source="RbVubb4JVoVdCr4QG7oP-21" target="RbVubb4JVoVdCr4QG7oP-23">
          <mxGeometry relative="1" as="geometry">
            <mxPoint x="830" y="-500" as="targetPoint" />
          </mxGeometry>
        </mxCell>
        <mxCell id="RbVubb4JVoVdCr4QG7oP-21" value="Package and disseminate" style="whiteSpace=wrap;html=1;rounded=0;" vertex="1" parent="1">
          <mxGeometry x="670" y="-530" width="120" height="60" as="geometry" />
        </mxCell>
        <mxCell id="RbVubb4JVoVdCr4QG7oP-22" value="" style="edgeStyle=orthogonalEdgeStyle;rounded=0;orthogonalLoop=1;jettySize=auto;html=1;" edge="1" parent="1" source="RbVubb4JVoVdCr4QG7oP-17" target="RbVubb4JVoVdCr4QG7oP-21">
          <mxGeometry relative="1" as="geometry" />
        </mxCell>
        <mxCell id="RbVubb4JVoVdCr4QG7oP-27" value="" style="endArrow=classic;html=1;exitX=0;exitY=0.5;exitDx=0;exitDy=0;entryX=1;entryY=0.5;entryDx=0;entryDy=0;" edge="1" parent="1" source="RbVubb4JVoVdCr4QG7oP-9" target="RbVubb4JVoVdCr4QG7oP-8">
          <mxGeometry width="50" height="50" relative="1" as="geometry">
            <mxPoint x="510" y="-540" as="sourcePoint" />
            <mxPoint x="560" y="-590" as="targetPoint" />
          </mxGeometry>
        </mxCell>
        <mxCell id="RbVubb4JVoVdCr4QG7oP-1" value="Information Management" style="swimlane;html=1;childLayout=stackLayout;resizeParent=1;resizeParentMax=0;horizontal=1;startSize=20;horizontalStack=0;" vertex="1" parent="1">
          <mxGeometry x="120" y="-750" width="840" height="440" as="geometry" />
        </mxCell>
        <mxCell id="RbVubb4JVoVdCr4QG7oP-2" value="TAS, RIID, PMDP, NB&amp;amp; COM, TSI" style="swimlane;html=1;startSize=20;horizontal=0;" vertex="1" parent="RbVubb4JVoVdCr4QG7oP-1">
          <mxGeometry y="20" width="840" height="300" as="geometry" />
        </mxCell>
        <mxCell id="RbVubb4JVoVdCr4QG7oP-5" value="Start" style="rounded=1;whiteSpace=wrap;html=1;" vertex="1" parent="RbVubb4JVoVdCr4QG7oP-2">
          <mxGeometry x="80" y="20" width="110" height="40" as="geometry" />
        </mxCell>
        <mxCell id="RbVubb4JVoVdCr4QG7oP-8" value="Identification of information sources" style="rounded=0;whiteSpace=wrap;html=1;" vertex="1" parent="RbVubb4JVoVdCr4QG7oP-2">
          <mxGeometry x="75" y="110" width="120" height="60" as="geometry" />
        </mxCell>
        <mxCell id="RbVubb4JVoVdCr4QG7oP-17" value="Collect, collate, analyse" style="whiteSpace=wrap;html=1;rounded=0;" vertex="1" parent="RbVubb4JVoVdCr4QG7oP-2">
          <mxGeometry x="350" y="200" width="120" height="60" as="geometry" />
        </mxCell>
        <mxCell id="RbVubb4JVoVdCr4QG7oP-23" value="End" style="rounded=1;whiteSpace=wrap;html=1;" vertex="1" parent="RbVubb4JVoVdCr4QG7oP-2">
          <mxGeometry x="719" y="210" width="105" height="40" as="geometry" />
        </mxCell>
        <mxCell id="RbVubb4JVoVdCr4QG7oP-3" value="Procurement" style="swimlane;html=1;startSize=20;horizontal=0;" vertex="1" parent="RbVubb4JVoVdCr4QG7oP-1">
          <mxGeometry y="320" width="840" height="120" as="geometry" />
        </mxCell>
      </root>
    </mxGraphModel>
  </diagram>
</mxfile>
